<?xml version="1.0" encoding="UTF-8" standalone="no"?>
<svg
   height="24"
   viewBox="0 0 108 24"
   width="108"
   version="1.1"
   id="svg11"
   sodipodi:docname="hurricane copy.svg"
   inkscape:version="1.3.2 (091e20e, 2023-11-25)"
   xmlns:inkscape="http://www.inkscape.org/namespaces/inkscape"
   xmlns:sodipodi="http://sodipodi.sourceforge.net/DTD/sodipodi-0.dtd"
   xmlns="http://www.w3.org/2000/svg"
   xmlns:svg="http://www.w3.org/2000/svg">
  <sodipodi:namedview
     id="namedview11"
     pagecolor="#ffffff"
     bordercolor="#000000"
     borderopacity="0.25"
     inkscape:showpageshadow="2"
     inkscape:pageopacity="0.0"
     inkscape:pagecheckerboard="0"
     inkscape:deskcolor="#d1d1d1"
     showgrid="false"
     inkscape:zoom="5.8445426"
     inkscape:cx="75.968306"
     inkscape:cy="9.4104883"
     inkscape:window-width="1712"
     inkscape:window-height="1041"
     inkscape:window-x="0"
     inkscape:window-y="43"
     inkscape:window-maximized="1"
     inkscape:current-layer="svg11" />
  <defs
     id="defs11">
    <linearGradient
       id="grad1"
       x1="0"
       y1="0"
       x2="0"
       y2="1">
      <stop
         offset="0%"
         style="stop-color:rgb(255,255,0);stop-opacity:1"
         id="stop1" />
      <stop
         offset="100%"
         style="stop-color:rgb(255,0,0);stop-opacity:1"
         id="stop2" />
    </linearGradient>
    <linearGradient
       id="gs1"
       x1="0"
       y1="0"
       x2="0"
       y2="1">
      <stop
         offset="30%"
         style="stop-color:rgb(86, 203, 249);stop-opacity:1"
         id="stop3" />
      <stop
         offset="100%"
         style="stop-color:rgb(66, 72, 116);stop-opacity:1"
         id="stop4" />
      <!--            <stop offset="100%" style="stop-color:rgb(86, 203, 249);stop-opacity:1" />-->
    </linearGradient>
    <linearGradient
       id="gs2"
       x1="0"
       y1="0"
       x2="0"
       y2="1">
      <stop
         offset="000%"
         style="stop-color:rgb(234, 222, 218);stop-opacity:1"
         id="stop5" />
      <stop
         offset="040%"
         style="stop-color:rgb(192, 50, 33);stop-opacity:1"
         id="stop6" />
      <stop
         offset="050%"
         style="stop-color:rgb(192, 50, 33);stop-opacity:1"
         id="stop7" />
      <stop
         offset="060%"
         style="stop-color:rgb(192, 50, 33);stop-opacity:1"
         id="stop8" />
      <stop
         offset="100%"
         style="stop-color:rgb(234, 222, 218);stop-opacity:1"
         id="stop9" />
      <!--            <stop offset="100%" style="stop-color:rgb(86, 203, 249);stop-opacity:1" />-->
    </linearGradient>
    <linearGradient
       id="gs3"
       x1="5.9386091"
       y1="1.7932127"
       x2="22.567091"
       y2="18.421696"
       gradientTransform="scale(0.84193701,1.1877373)"
       gradientUnits="userSpaceOnUse">
      <stop
         offset="000%"
         style="stop-color:#009245;stop-opacity:1"
         id="stop10" />
      <stop
         offset="100%"
         style="stop-color:#FCEE21;stop-opacity:1"
         id="stop11" />
      <!--            <stop offset="100%" style="stop-color:rgb(86, 203, 249);stop-opacity:1" />-->
    </linearGradient>
  </defs>
  <path
     d="M 19,12 A 7,7 0 0 0 12.66,5 27.32,27.32 0 0 1 14.87,2.91 0.44,0.44 0 0 0 14.58,2.13 10.62,10.62 0 0 0 5.41,9.63 4.26,4.26 0 0 0 5.26,10.1 v 0.06 A 7.18,7.18 0 0 0 5,12 a 7,7 0 0 0 6.35,7 27.71,27.71 0 0 1 -2.21,2.1 0.44,0.44 0 0 0 0.29,0.78 10.65,10.65 0 0 0 9.23,-7.69 v -0.14 c 0,-0.05 0.05,-0.13 0.07,-0.2 A 6.76,6.76 0 0 0 19,12 Z m -7,3.5 A 3.5,3.5 0 1 1 15.5,12 3.5,3.5 0 0 1 12,15.5 Z"
     fill="url(#gs3)"
     id="path11"
     style="fill:url(#gs3)" />
  <text
     xml:space="preserve"
     style="font-style:normal;font-variant:normal;font-weight:500;font-stretch:normal;font-size:13.6411px;font-family:'Helvetica Neue';-inkscape-font-specification:'Helvetica Neue Medium';fill:#000000;stroke-width:1.13676"
     x="23.76605"
     y="16.874872"
     id="text11"><tspan
       sodipodi:role="line"
       id="tspan11"
       x="23.76605"
       y="16.874872"
       style="font-style:normal;font-variant:normal;font-weight:500;font-stretch:normal;font-family:'Helvetica Neue';-inkscape-font-specification:'Helvetica Neue Medium';fill:#000000;stroke-width:1.13676">Gatherstack</tspan></text>
</svg>
