<svg xmlns="http://www.w3.org/2000/svg" height="24" viewBox="0 0 24 24" width="24">
    <defs>
        <linearGradient id="grad1" x1="0%" y1="0%" x2="0%" y2="100%">
            <stop offset="0%" style="stop-color:rgb(255,255,0);stop-opacity:1" />
            <stop offset="100%" style="stop-color:rgb(255,0,0);stop-opacity:1" />
        </linearGradient>
        <linearGradient id="gs1" x1="0%" y1="0%" x2="0%" y2="100%">
            <stop offset="30%" style="stop-color:rgb(86, 203, 249);stop-opacity:1" />
            <stop offset="100%" style="stop-color:rgb(66, 72, 116);stop-opacity:1" />
<!--            <stop offset="100%" style="stop-color:rgb(86, 203, 249);stop-opacity:1" />-->
        </linearGradient>
        <linearGradient id="gs2" x1="0%" y1="0%" x2="0%" y2="100%">
            <stop offset="000%" style="stop-color:rgb(234, 222, 218);stop-opacity:1" />
            <stop offset="040%" style="stop-color:rgb(192, 50, 33);stop-opacity:1" />
            <stop offset="050%" style="stop-color:rgb(192, 50, 33);stop-opacity:1" />
            <stop offset="060%" style="stop-color:rgb(192, 50, 33);stop-opacity:1" />
            <stop offset="100%" style="stop-color:rgb(234, 222, 218);stop-opacity:1" />
            <!--            <stop offset="100%" style="stop-color:rgb(86, 203, 249);stop-opacity:1" />-->
        </linearGradient>
        <linearGradient id="gs3" x1="0%" y1="0%" x2="100%" y2="100%">
            <stop offset="000%" style="stop-color:#009245;stop-opacity:1" />
            <stop offset="100%" style="stop-color:#FCEE21;stop-opacity:1" />
            <!--            <stop offset="100%" style="stop-color:rgb(86, 203, 249);stop-opacity:1" />-->
        </linearGradient>
    </defs>
    <path
        d="M19 12a7 7 0 0 0-6.34-7 27.32 27.32 0 0 1 2.21-2.09.44.44 0 0 0-.29-.78 10.62 10.62 0 0 0-9.17 7.5 4.26 4.26 0 0 0-.15.47v.06A7.18 7.18 0 0 0 5 12a7 7 0 0 0 6.35 7 27.71 27.71 0 0 1-2.21 2.1.44.44 0 0 0 .29.78 10.65 10.65 0 0 0 9.23-7.69v-.14c0-.05.05-.13.07-.2A6.76 6.76 0 0 0 19 12Zm-7 3.5a3.5 3.5 0 1 1 3.5-3.5 3.5 3.5 0 0 1-3.5 3.5Z"
        fill="url(#gs3)"
    />
</svg>
